# xmcd
#
# Track frame offsets:
#	150
#	15120
#	30987
#	49525
#	70117
#	90912
#	111238
#	130667
#	151338
#	164421
#	174012
#	188979
#	219971
#	234673
#
# Disc length: 3429 seconds
#
# Revision: 0
# Processed by: cddbd v1.5.2PL0 Copyright (c) Steve Scherf et al.
# Submitted via: EasyCDDAExtractor 9.0.0.1
#
DISCID=9b0d630e
DTITLE=Whiskey River - O piatej nad ranem
DYEAR=2001
DGENRE=Country
TTITLE0=Czasami lubiê kochaæ
TTITLE1=O piatej nad ranem
TTITLE2=Stary nocny bar
TTITLE3=Karolino, wróæ
TTITLE4=Hej, cz³owieku w starym p³aszczu
TTITLE5=Mama mi mówi³a
TTITLE6=Dom na wzgórzu
TTITLE7=Pod "Starym Kasztanem"
TTITLE8=Nigdy nie wracaj!
TTITLE9=Korek
TTITLE10=Nieudany start
TTITLE11=Modlitwa górnika
TTITLE12=Wielki kac (Whiskey twój wróg)
TTITLE13=Wci¹¿ ¿yjê tak samo (piosenka o czerwonej sukience)
EXTD=
EXTT0=
EXTT1=
EXTT2=
EXTT3=
EXTT4=
EXTT5=
EXTT6=
EXTT7=
EXTT8=
EXTT9=
EXTT10=
EXTT11=
EXTT12=
EXTT13=
PLAYORDER=
